<svg width="46" height="38" viewBox="0 0 46 38" fill="none" xmlns="http://www.w3.org/2000/svg">
<path d="M2.06369 17.3916C1.9852 17.0783 1.97917 16.7512 2.04607 16.4351C2.11296 16.1191 2.25101 15.8225 2.44973 15.5679C2.64845 15.3132 2.90261 15.1072 3.19289 14.9656C3.48317 14.8239 3.80193 14.7502 4.12494 14.7502H41.1849C41.5077 14.7503 41.8262 14.8239 42.1163 14.9655C42.4064 15.1071 42.6604 15.3128 42.8591 15.5672C43.0578 15.8216 43.1959 16.1179 43.263 16.4337C43.3301 16.7494 43.3243 17.0763 43.2462 17.3895L39.3978 32.7808C39.168 33.7003 38.6374 34.5165 37.8905 35.0998C37.1435 35.6832 36.223 36.0001 35.2753 36.0002H10.0346C9.08684 36.0001 8.16635 35.6832 7.4194 35.0998C6.67244 34.5165 6.14189 33.7003 5.91207 32.7808L2.06369 17.3916Z" stroke="black" stroke-width="4" stroke-linejoin="round"/>
<path d="M16.2798 23.2502V27.5002M29.0298 23.2502V27.5002M9.90479 14.7502L18.4048 2.00021M35.4048 14.7502L26.9048 2.00021" stroke="black" stroke-width="4" stroke-linecap="round"/>
</svg>
