<svg width="50" height="50" viewBox="0 0 50 50" fill="none" xmlns="http://www.w3.org/2000/svg">
<path d="M12.4998 37.5L7.70817 42.2917C7.04845 42.9514 6.2929 43.0993 5.44151 42.7354C4.59012 42.3715 4.16512 41.7201 4.16651 40.7812V8.33333C4.16651 7.1875 4.57484 6.20694 5.39151 5.39166C6.20817 4.57639 7.18873 4.16805 8.33317 4.16666H41.6665C42.8123 4.16666 43.7936 4.575 44.6103 5.39166C45.4269 6.20833 45.8346 7.18889 45.8332 8.33333V33.3333C45.8332 34.4792 45.4255 35.4604 44.6103 36.2771C43.795 37.0938 42.8137 37.5014 41.6665 37.5H12.4998ZM10.729 33.3333H41.6665V8.33333H8.33317V35.6771L10.729 33.3333ZM14.5832 29.1667H27.0832C27.6735 29.1667 28.1686 28.9667 28.5686 28.5667C28.9686 28.1667 29.1679 27.6722 29.1665 27.0833C29.1651 26.4944 28.9651 26 28.5665 25.6C28.1679 25.2 27.6735 25 27.0832 25H14.5832C13.9929 25 13.4985 25.2 13.0998 25.6C12.7012 26 12.5012 26.4944 12.4998 27.0833C12.4985 27.6722 12.6985 28.1674 13.0998 28.5688C13.5012 28.9701 13.9957 29.1694 14.5832 29.1667ZM14.5832 22.9167H35.4165C36.0068 22.9167 36.5019 22.7167 36.9019 22.3167C37.3019 21.9167 37.5012 21.4222 37.4998 20.8333C37.4985 20.2444 37.2985 19.75 36.8998 19.35C36.5012 18.95 36.0068 18.75 35.4165 18.75H14.5832C13.9929 18.75 13.4985 18.95 13.0998 19.35C12.7012 19.75 12.5012 20.2444 12.4998 20.8333C12.4985 21.4222 12.6985 21.9174 13.0998 22.3188C13.5012 22.7201 13.9957 22.9194 14.5832 22.9167ZM14.5832 16.6667H35.4165C36.0068 16.6667 36.5019 16.4667 36.9019 16.0667C37.3019 15.6667 37.5012 15.1722 37.4998 14.5833C37.4985 13.9944 37.2985 13.5 36.8998 13.1C36.5012 12.7 36.0068 12.5 35.4165 12.5H14.5832C13.9929 12.5 13.4985 12.7 13.0998 13.1C12.7012 13.5 12.5012 13.9944 12.4998 14.5833C12.4985 15.1722 12.6985 15.6674 13.0998 16.0687C13.5012 16.4701 13.9957 16.6694 14.5832 16.6667Z" fill="black"/>
</svg>
