<svg width="43" height="39" viewBox="0 0 43 39" fill="none" xmlns="http://www.w3.org/2000/svg">
<path d="M30.8125 2C36.2553 2 40.5 6.2282 40.5 11.6875C40.5 15.0356 39.0075 18.2397 35.9707 21.9551C32.9119 25.6973 28.4985 29.7095 22.9873 34.707L22.9854 34.71L21.25 36.2891L19.5146 34.71L19.5127 34.707L17.4971 32.8779C12.9186 28.711 9.20571 25.2295 6.5293 21.9551C3.49247 18.2397 2 15.0356 2 11.6875C2 6.2282 6.24469 2 11.6875 2C14.7804 2 17.7821 3.45026 19.7324 5.72266L21.25 7.49121L22.7676 5.72266C24.7179 3.45026 27.7196 2 30.8125 2Z" stroke="black" stroke-width="4"/>
</svg>
