<svg width="67" height="67" viewBox="0 0 67 67" fill="none" xmlns="http://www.w3.org/2000/svg">
<circle cx="33.5" cy="33.5" r="33.5" fill="#9CD49C"/>
<path d="M35.4911 20.1269C38.0404 20.4623 40.4408 21.5193 42.4094 23.1734C42.9024 23.5876 42.8994 24.3313 42.4444 24.7863L40.0878 27.143C39.6328 27.598 38.8978 27.5892 38.3801 27.2071C37.0887 26.253 35.535 25.7192 33.9299 25.6783C32.3247 25.6374 30.7459 26.0914 29.4076 26.9786C28.0693 27.8658 27.0363 29.1432 26.449 30.6376C25.8616 32.1319 25.7482 33.7708 26.1242 35.3319C26.5002 36.8929 27.3473 38.3004 28.5507 39.3634C29.7541 40.4265 31.2554 41.0935 32.8509 41.2741C34.4463 41.4546 36.0587 41.1399 37.4692 40.3727C38.8797 39.6054 40.02 38.4228 40.7353 36.9853H35.0332C34.7238 36.9853 34.427 36.8624 34.2082 36.6436C33.9894 36.4248 33.8665 36.128 33.8665 35.8186V32.479C33.8665 32.1696 33.9894 31.8729 34.2082 31.6541C34.427 31.4353 34.7238 31.3124 35.0332 31.3124H45.9605C46.4213 31.3124 46.8501 31.5836 46.9536 32.0342C47.4101 34.0205 46.7713 36.768 46.7232 36.9692L46.7174 36.9926C45.9474 39.8553 44.2951 42.3971 41.9428 44.2026C40.1828 45.5528 38.117 46.4482 35.9283 46.8094C33.7397 47.1706 31.4957 46.9865 29.3952 46.2734C27.2947 45.5602 25.4024 44.3401 23.8861 42.7211C22.3697 41.102 21.276 39.134 20.7019 36.9913C20.1277 34.8486 20.0908 32.5974 20.5945 30.4371C21.0981 28.2768 22.1267 26.274 23.5893 24.6061C25.0518 22.9383 26.903 21.6568 28.979 20.8752C31.0551 20.0937 33.2918 19.8376 35.4911 20.1269Z" fill="white"/>
</svg>
