<svg width="67" height="67" viewBox="0 0 67 67" fill="none" xmlns="http://www.w3.org/2000/svg">
<circle cx="33.5" cy="33.5" r="33.5" fill="#9CD49C"/>
<path d="M35.4906 20.1269C38.0399 20.4623 40.4403 21.5193 42.409 23.1734C42.9019 23.5876 42.899 24.3313 42.444 24.7863L40.0873 27.143C39.6323 27.598 38.8973 27.5892 38.3796 27.2071C37.0882 26.253 35.5345 25.7192 33.9294 25.6783C32.3242 25.6374 30.7454 26.0914 29.4071 26.9786C28.0688 27.8658 27.0359 29.1432 26.4485 30.6376C25.8611 32.1319 25.7477 33.7708 26.1237 35.3319C26.4997 36.8929 27.3469 38.3004 28.5502 39.3634C29.7536 40.4265 31.2549 41.0935 32.8504 41.2741C34.4458 41.4546 36.0582 41.1399 37.4687 40.3727C38.8792 39.6054 40.0195 38.4228 40.7348 36.9853H35.0327C34.7233 36.9853 34.4265 36.8624 34.2077 36.6436C33.989 36.4248 33.866 36.128 33.866 35.8186V32.479C33.866 32.1696 33.989 31.8729 34.2077 31.6541C34.4265 31.4353 34.7233 31.3124 35.0327 31.3124H45.96C46.4208 31.3124 46.8496 31.5836 46.9531 32.0342C47.4096 34.0205 46.7708 36.768 46.7227 36.9692L46.7169 36.9926C45.9469 39.8553 44.2946 42.3971 41.9423 44.2026C40.1823 45.5528 38.1165 46.4482 35.9278 46.8094C33.7392 47.1706 31.4952 46.9865 29.3947 46.2734C27.2942 45.5602 25.4019 44.3401 23.8856 42.7211C22.3692 41.102 21.2755 39.134 20.7014 36.9913C20.1272 34.8486 20.0903 32.5974 20.594 30.4371C21.0976 28.2768 22.1263 26.274 23.5888 24.6061C25.0513 22.9383 26.9025 21.6568 28.9786 20.8752C31.0546 20.0937 33.2913 19.8376 35.4906 20.1269Z" fill="white" stroke="black" stroke-width="1.5" stroke-linecap="round" stroke-linejoin="round"/>
</svg>
