<svg width="133" height="131" viewBox="0 0 133 131" fill="none" xmlns="http://www.w3.org/2000/svg">
<path d="M51.8599 73.7589H38.4399V85.3489H51.8599V73.7589Z" fill="#F4A67F"/>
<path d="M69.5499 73.7589H56.1299V85.3489H69.5499V73.7589Z" fill="#D97C8E"/>
<path d="M69.5499 89.2189H56.1299V103.859H69.5499V89.2189Z" fill="#D97C8E"/>
<path d="M51.8599 89.2189H38.4399V103.859H51.8599V89.2189Z" fill="#F4A67F"/>
<path d="M30.21 49.9289V36.7489H38.44V42.8889L30.21 49.9289Z" fill="#D97C8E"/>
<path d="M17.3501 73.7589V110.169H19.9301V71.4889L17.3501 73.7589Z" fill="#D97C8E"/>
<path d="M90.1599 13.5589V39.6289" stroke="#D97C8E" stroke-width="1.2" stroke-miterlimit="10"/>
<path d="M96.8101 32.4989V13.5589" stroke="#D97C8E" stroke-width="1.2" stroke-miterlimit="10"/>
<path d="M90.1599 51.2689V117.429L93.1499 128.269L96.8099 117.379V43.9689" stroke="#D97C8E" stroke-width="1.2" stroke-miterlimit="10"/>
<path d="M96.8299 13.5989C95.8999 14.1689 94.7399 14.4989 93.4899 14.4989C90.4199 14.4989 87.9299 12.4989 87.9299 10.0289C87.9299 7.55889 90.4199 5.55889 93.4899 5.55889C96.5599 5.55889 99.0499 7.55889 99.0499 10.0289C99.0499 11.4889 98.1799 12.7889 96.8399 13.5989" stroke="#D97C8E" stroke-width="1.2" stroke-miterlimit="10"/>
<path d="M129.883 10.6689C131.503 8.80576 130.937 5.66225 128.62 3.64769C126.302 1.63313 123.111 1.51039 121.491 3.37355C119.871 5.23671 120.437 8.38023 122.755 10.3948C125.072 12.4094 128.264 12.5321 129.883 10.6689Z" stroke="#F4A67F" stroke-width="1.2" stroke-miterlimit="10"/>
<path d="M96.8101 43.9689L85.1801 56.7389L79.3301 51.2589L90.1601 39.6289" stroke="#F4A67F" stroke-width="1.2" stroke-miterlimit="10"/>
<path d="M125.96 11.9389L125.68 12.2489L96.8101 43.9689" stroke="#F4A67F" stroke-width="1.2" stroke-miterlimit="10"/>
<path d="M0 75.7989L55.12 28.6089L105.55 75.7989H97.42L56.54 39.1889L15.05 75.7989H0Z" fill="#D97C8E"/>
<path d="M123.72 10.4289C123.96 10.5089 125.84 11.1389 127.42 10.0789C129 9.00889 129.63 6.67889 128.7 4.54889C130.11 5.39889 130.96 6.84889 130.87 8.32889C130.8 9.51889 130.15 10.3489 129.87 10.6689C129.79 10.7789 128.51 12.3389 126.48 12.1289C124.75 11.9489 123.84 10.6189 123.71 10.4289H123.72Z" fill="#F4A67F"/>
<path d="M94.1101 14.4989V34.8689L96.8101 31.8789V14.4989H94.1101Z" fill="#D97C8E"/>
<path d="M90.1599 39.6289L120.81 6.74889" stroke="#F4A67F" stroke-width="1.2" stroke-miterlimit="10"/>
<path d="M94.1101 47.8189C94.1501 73.5589 94.1901 99.3089 94.2301 125.049L96.8101 117.379C97.0001 92.9989 97.1801 68.6089 97.3701 44.2289C96.2801 45.4189 95.2001 46.6189 94.1101 47.8089V47.8189Z" fill="#D97C8E"/>
<path d="M83.25 54.3889L123.35 10.8589L125.68 12.2489L85.18 56.7389L82.98 54.6789L83.25 54.3889Z" fill="#F4A67F"/>
<path d="M94.12 13.8689C95.97 13.2789 97.16 11.4989 96.98 9.65889C96.83 8.01889 95.62 6.60889 93.96 6.16889C95.77 5.96889 97.48 6.62889 98.37 7.93889C98.9 8.71889 99.01 9.52889 99.03 10.0189C99.03 10.3189 98.95 11.7589 97.78 12.8589C96.28 14.2789 94.3 13.8989 94.11 13.8589L94.12 13.8689Z" fill="#D97C8E"/>
</svg>
