<svg width="67" height="67" viewBox="0 0 67 67" fill="none" xmlns="http://www.w3.org/2000/svg">
<circle cx="33.5" cy="33.5" r="33.5" fill="#607EB5"/>
<path d="M47.36 44.8058H44.0321C42.7735 44.8058 42.3944 43.7864 40.1383 41.5289C38.1667 39.6287 37.334 39.3925 36.8352 39.3925C36.1454 39.3925 35.9573 39.5821 35.9573 40.5314V43.5239C35.9573 44.3333 35.6948 44.8073 33.5802 44.8073C31.5288 44.6695 29.5394 44.0462 27.776 42.989C26.0126 41.9317 24.5256 40.4706 23.4375 38.726C20.8548 35.5099 19.0573 31.736 18.1875 27.7039C18.1875 27.2052 18.3771 26.7531 19.3279 26.7531H22.6529C23.5075 26.7531 23.8152 27.1337 24.1506 28.0131C25.765 32.7644 28.5198 36.8973 29.6383 36.8973C30.0671 36.8973 30.2538 36.7077 30.2538 35.6387V30.7446C30.1123 28.5119 28.9267 28.3237 28.9267 27.5158C28.9417 27.3027 29.0392 27.1038 29.1985 26.9613C29.3578 26.8189 29.5663 26.7442 29.7798 26.7531H35.0065C35.721 26.7531 35.9573 27.1089 35.9573 27.9635V34.5698C35.9573 35.2829 36.2635 35.5191 36.4794 35.5191C36.9081 35.5191 37.2377 35.2829 38.0238 34.4983C39.708 32.443 41.0844 30.1538 42.11 27.7025C42.2145 27.4078 42.4127 27.1556 42.6743 26.9844C42.9358 26.8132 43.2463 26.7324 43.5581 26.7546H46.8846C47.8821 26.7546 48.0935 27.2533 47.8821 27.965C46.6719 30.675 45.1749 33.2476 43.4167 35.6387C43.0579 36.1856 42.915 36.47 43.4167 37.1116C43.7462 37.6104 44.9129 38.5846 45.696 39.5106C46.8365 40.6481 47.7829 41.9635 48.499 43.4044C48.7848 44.3319 48.3094 44.8058 47.36 44.8058Z" fill="white"/>
</svg>
