<svg width="67" height="67" viewBox="0 0 67 67" fill="none" xmlns="http://www.w3.org/2000/svg">
<circle cx="33.5" cy="33.5" r="33.5" fill="#607EB5"/>
<path d="M30.7539 30.7285L30.7529 30.7129C30.6755 29.491 30.3048 28.7954 29.9404 28.2998C29.8544 28.1829 29.7691 28.0784 29.6992 27.9912C29.6262 27.9001 29.5716 27.8304 29.5273 27.7656C29.4524 27.6558 29.4312 27.592 29.4277 27.5342C29.4372 27.4573 29.4733 27.3859 29.5312 27.334C29.5935 27.2783 29.6754 27.2495 29.7588 27.2529H35.0068C35.2866 27.253 35.3371 27.3207 35.3516 27.3398C35.3949 27.3971 35.457 27.5554 35.457 27.9639V34.5693C35.457 35.3794 35.8373 36.0195 36.4795 36.0195C37.1486 36.0195 37.6224 35.6057 38.377 34.8525L38.3945 34.835L38.4102 34.8154C40.1251 32.7227 41.527 30.3915 42.5713 27.8955L42.5762 27.8828L42.5811 27.8691C42.649 27.6777 42.7783 27.5136 42.9482 27.4023C43.1182 27.2912 43.3199 27.2386 43.5225 27.2529L43.54 27.2549H46.8848C47.325 27.2549 47.4185 27.3674 47.4287 27.3818C47.4446 27.4046 47.4898 27.5091 47.4072 27.7998C46.2146 30.4629 44.7423 32.9919 43.0137 35.3428L43.0059 35.3535L42.999 35.3643C42.8336 35.6164 42.6257 35.9306 42.5957 36.2988C42.5627 36.7048 42.7434 37.0619 43.0225 37.4189C43.232 37.7209 43.6408 38.1208 44.0361 38.5078C44.4715 38.9339 44.9412 39.3916 45.3145 39.833L45.3281 39.8496L45.3428 39.8643C46.4347 40.9534 47.3416 42.2124 48.0312 43.5898C48.1305 43.9375 48.058 44.0754 48.0137 44.127C47.9503 44.2004 47.7726 44.3056 47.3604 44.3057H44.0322C43.793 44.3057 43.6141 44.2591 43.4434 44.1689C43.2616 44.0729 43.0673 43.9163 42.8135 43.6611C42.5578 43.4041 42.2724 43.0794 41.8926 42.6582C41.5176 42.2424 41.0646 41.7485 40.4922 41.1758L40.4854 41.1689L40.126 40.8281C38.3851 39.214 37.5004 38.8926 36.835 38.8926C36.486 38.8926 36.0406 38.9286 35.748 39.293C35.6114 39.4633 35.5428 39.6639 35.5059 39.8604C35.469 40.0564 35.457 40.2823 35.457 40.5312V43.5244C35.457 43.883 35.3974 43.9774 35.2842 44.0527C35.0922 44.1804 34.6417 44.3053 33.5977 44.3066C31.631 44.172 29.724 43.5742 28.0332 42.5605C26.3377 41.544 24.9075 40.1383 23.8613 38.4609L23.8457 38.4365L23.8271 38.4131L23.3613 37.8145C21.089 34.8096 19.4938 31.3453 18.6895 27.6592C18.695 27.4926 18.7304 27.421 18.7637 27.3857C18.7968 27.3508 18.9212 27.2529 19.3281 27.2529H22.6533C23.0011 27.253 23.1549 27.3285 23.2598 27.4238C23.3893 27.5415 23.514 27.753 23.6758 28.1738H23.6768C24.4963 30.5858 25.6062 32.8425 26.6582 34.5039C27.1833 35.3332 27.7031 36.0284 28.1748 36.5225C28.41 36.7688 28.6442 36.9777 28.8721 37.1279C29.0906 37.272 29.3556 37.3975 29.6387 37.3975C29.7756 37.3974 29.9482 37.3829 30.1182 37.3076C30.3031 37.2255 30.4454 37.089 30.5439 36.9111C30.7141 36.604 30.7539 36.1663 30.7539 35.6387V30.7285Z" fill="white" stroke="black"/>
</svg>
