<svg width="67" height="67" viewBox="0 0 67 67" fill="none" xmlns="http://www.w3.org/2000/svg">
<circle cx="33.5" cy="33.5" r="33.5" fill="#F55858"/>
<g clip-path="url(#clip0_211_4)">
<path d="M35.8516 22.6797C34.7002 22.6798 33.5303 23.0642 32.6533 24.0322C31.7803 24.9961 31.2549 26.475 31.2549 28.5518C31.2549 30.5528 31.7336 31.9717 32.5947 32.8906C33.4609 33.8148 34.6371 34.1523 35.8516 34.1523H37.7305V22.6797H35.8516ZM37.7295 35.3008H37.2295L35.083 35.2998H34.7588L34.626 35.5967L30.6602 44.5H28.7783L32.9541 35.374L33.1533 34.9375L32.7256 34.7197C31.7407 34.2193 30.938 33.5275 30.377 32.5547C29.8139 31.5785 29.4736 30.2847 29.4736 28.5518L29.4824 28.1074C29.5681 25.9271 30.3031 24.3209 31.3906 23.2441C32.5539 22.0925 34.1663 21.501 35.9531 21.501H39.3105V44.501H37.7295V35.3008Z" fill="white" stroke="white"/>
</g>
<defs>
<clipPath id="clip0_211_4">
<rect width="12" height="24" fill="white" transform="translate(28 21)"/>
</clipPath>
</defs>
</svg>
